<svg width="256" height="256" xmlns="http://www.w3.org/2000/svg">
 <g>
  <title>Layer 1</title>
  <path id="svg_3" d="m34.5,44.5c0,0 209,196 209,196c0,0 -37,-225 -37.5,-225.5c0.5,0.5 -190.5,204.5 -190.5,204.5c0,0 19,-175 19,-175z" stroke-width="5.0" stroke="#ffffff" fill="#000099"/>
  <path id="svg_3" d="m34.5,44.5c0,0 209,196 209,196c0,0 -37,-225 -37.5,-225.5c0.5,0.5 -190.5,204.5 -190.5,204.5c0,0 19,-175 19,-175z" stroke-width="1.5" stroke="#000099" fill="#000099"/>
  <ellipse stroke="#0fffff" ry="17.5" rx="17.5" id="svg_4" cy="118" cx="64" stroke-width="1.5" fill="#ffffff"/>
  <ellipse stroke="#ffffff" ry="17.5" rx="17.5" id="svg_5" cy="116" cx="165" stroke-width="1.5" fill="#ffffff"/>
 </g>
</svg>
